<svg version="1.1" id="svg981" xml:space="preserve" width="300" height="300" viewBox="0 0 32 32" xmlns="http://www.w3.org/2000/svg" xmlns:svg="http://www.w3.org/2000/svg" xmlns:xlink="http://www.w3.org/1999/xlink" xmlns:svgjs="http://svgjs.dev/svgjs"><g transform="matrix(1,0,0,1,0,0)"><defs id="defs985"><clipPath clipPathUnits="userSpaceOnUse" id="clipPath995"><path d="M 0,24 H 24 V 0 H 0 Z" id="path993" fill="#42b7ffff" data-original-color="#000000ff" stroke="none"/></clipPath></defs><g id="g987" transform="matrix(1.3333333,0,0,-1.3333333,0,32)"><g id="g989"><g id="g991" clip-path="url(#clipPath995)"><g id="g997" transform="translate(11.5,18)"><path d="M 0,0 C -1.654,0 -3,1.346 -3,3 -3,4.654 -1.654,6 0,6 1.654,6 3,4.654 3,3 3,1.346 1.654,0 0,0" style="fill-opacity: 1; fill-rule: nonzero;" id="path999" fill="#42b7ffff" data-original-color="#000000ff" stroke="none"/></g><g id="g1001" transform="translate(11.5,15.5)"><path d="m 0,0 v -6 c 0,-1.104 0.896,-2 2,-2 h 3.646 c 0.818,0 1.553,-0.498 1.857,-1.257 L 9,-13 h 2" style="stroke-linecap: round; stroke-linejoin: round; stroke-miterlimit: 10; stroke-dasharray: none; stroke-opacity: 1;" id="path1003" fill="none" stroke="#42b7ffff" data-original-stroke-color="#000000ff" stroke-width="3" data-original-stroke-width="3"/></g><g id="g1005" transform="translate(11.5,12.5)"><path d="M 0,0 H 6" style="stroke-linecap: round; stroke-linejoin: round; stroke-miterlimit: 10; stroke-dasharray: none; stroke-opacity: 1;" id="path1007" fill="none" stroke="#42b7ffff" data-original-stroke-color="#000000ff" stroke-width="3" data-original-stroke-width="3"/></g><g id="g1009" transform="translate(6.5,14.3262)"><path d="m 0,0 c -2.867,-0.678 -5,-3.253 -5,-6.326 0,-3.59 2.91,-6.5 6.5,-6.5 3.422,0 6.226,2.643 6.481,6" style="stroke-linecap: round; stroke-linejoin: round; stroke-miterlimit: 10; stroke-dasharray: none; stroke-opacity: 1;" id="path1011" fill="none" stroke="#42b7ffff" data-original-stroke-color="#000000ff" stroke-width="3" data-original-stroke-width="3"/></g></g></g></g></g></svg>