<svg xmlns="http://www.w3.org/2000/svg" viewBox="0 0 500 500"><g id="freepik--background-complete--inject-18"><path d="M413.22,247.35a9.44,9.44,0,1,1-9.44-9.44A9.44,9.44,0,0,1,413.22,247.35Z" style="fill:#ebebeb"></path><circle cx="375.75" cy="247.35" r="10.06" transform="translate(-64.85 338.14) rotate(-45)" style="fill:#ebebeb"></circle><circle cx="354.21" cy="229.56" r="10.67" style="fill:#ebebeb"></circle><circle cx="349.84" cy="202.21" r="11.15" transform="translate(89 510.82) rotate(-79.82)" style="fill:#ebebeb"></circle><circle cx="363.49" cy="178.27" r="11.52" style="fill:#ebebeb"></circle><circle cx="389.72" cy="168.81" r="12.56" transform="translate(-34.95 163.35) rotate(-22.68)" style="fill:#ebebeb"></circle><circle cx="424.61" cy="229.34" r="9.12" transform="translate(104.18 590.19) rotate(-76.77)" style="fill:#ebebeb"></circle><circle cx="429.48" cy="201.91" r="8.46" transform="translate(-43.8 166.95) rotate(-20.96)" style="fill:#ebebeb"></circle><circle cx="415.41" cy="177.95" r="7.73" transform="translate(173.37 559.59) rotate(-80.8)" style="fill:#ebebeb"></circle><path d="M142.26,132.53a38.14,38.14,0,0,1,5.84,8.19l9.32,0,3.47,15-8.4,4.05a38,38,0,0,1-1.66,9.92l6.62,6.57-8.19,13.08-8.8-3.07a37.27,37.27,0,0,1-8.19,5.83l0,9.33-15,3.46-4-8.4a37.33,37.33,0,0,1-9.92-1.66l-6.56,6.62-13.08-8.18,3.07-8.8a38.14,38.14,0,0,1-5.84-8.19l-9.32,0-3.47-15,8.4-4.05a38.08,38.08,0,0,1,1.66-9.92l-6.61-6.57,8.18-13.08,8.8,3.07a37.85,37.85,0,0,1,8.19-5.83l0-9.33,15-3.46,4,8.4a37.67,37.67,0,0,1,9.92,1.66l6.56-6.62,13.09,8.18-3.08,8.8Zm-18.4,12.31a16.55,16.55,0,1,0,5.26,22.81A16.54,16.54,0,0,0,123.86,144.84Z" style="fill:#e0e0e0;fill-rule:evenodd"></path><path d="M151.35,69.3a21.33,21.33,0,0,1,3.23,4.54l5.16,0,1.92,8.32L157,84.38a20.83,20.83,0,0,1-.92,5.5l3.66,3.63-4.53,7.24-4.87-1.7a21,21,0,0,1-4.54,3.23l0,5.17-8.32,1.91-2.24-4.65a20.76,20.76,0,0,1-5.49-.92l-3.64,3.67-7.24-4.53,1.7-4.87a21,21,0,0,1-3.23-4.54l-5.16,0-1.92-8.32L114.94,83a20.83,20.83,0,0,1,.92-5.49l-3.66-3.63,4.52-7.25,4.88,1.71a20.69,20.69,0,0,1,4.53-3.23l0-5.17L134.43,58l2.25,4.66a21.16,21.16,0,0,1,5.49.91l3.64-3.66,7.24,4.53-1.7,4.87Zm-10.19,6.82a9.16,9.16,0,1,0,2.91,12.62A9.16,9.16,0,0,0,141.16,76.12Z" style="fill:#e0e0e0;fill-rule:evenodd"></path><path d="M87.18,79.17a16.73,16.73,0,0,1,2.62,3.67l4.18,0,1.56,6.75-3.77,1.82A16.66,16.66,0,0,1,91,95.84l3,2.94-3.67,5.87-3.94-1.38a17,17,0,0,1-3.68,2.62l0,4.18L76,111.63l-1.81-3.77a17.14,17.14,0,0,1-4.46-.75l-2.94,3-5.87-3.67,1.38-4a16.73,16.73,0,0,1-2.62-3.67l-4.18,0-1.56-6.75,3.77-1.82a17.14,17.14,0,0,1,.75-4.45l-3-2.94L59.13,77l3.95,1.38a16.73,16.73,0,0,1,3.67-2.62V71.56L73.48,70l1.82,3.77a17.07,17.07,0,0,1,4.45.75l2.94-3,5.87,3.67-1.38,4Zm-8.25,5.52a7.42,7.42,0,1,0,2.36,10.23A7.41,7.41,0,0,0,78.93,84.69Z" style="fill:none"></path><path d="M78.93,84.69s.15.06.42.23a6,6,0,0,1,1.06.86,7.52,7.52,0,0,1,1.67,8A7.61,7.61,0,0,1,79.7,97a7.69,7.69,0,0,1-4.14,1.62,7.58,7.58,0,0,1-7.67-4.8,7,7,0,0,1-.52-2.23,7.31,7.31,0,0,1,.16-2.2,7.66,7.66,0,0,1,1.86-3.56,7.55,7.55,0,0,1,2.92-1.93,7.41,7.41,0,0,1,5,0,5.68,5.68,0,0,1,1.24.57c.26.17.4.26.39.28s-.57-.33-1.69-.68a7.38,7.38,0,0,0-4.81.19A7.27,7.27,0,0,0,68,89.47a7.17,7.17,0,0,0,.37,4.17,7.24,7.24,0,0,0,2.86,3.44,7.32,7.32,0,0,0,4.35,1.07,6.77,6.77,0,0,0,2.1-.48,6.51,6.51,0,0,0,1.8-1,7.21,7.21,0,0,0,2.78-6.33,7.38,7.38,0,0,0-1.93-4.41C79.48,85.06,78.9,84.73,78.93,84.69Z" style="fill:#e0e0e0"></path><path d="M87.18,79.17s0-.09.07-.25.14-.44.25-.76l1-3,0,.09-5.89-3.63.15,0-2.93,3-.06.06-.08,0a16.68,16.68,0,0,0-4.42-.72H75.2l0-.08-1.83-3.76.19.09-6.74,1.57.14-.18c0,1.29,0,2.72,0,4.18v.12l-.11,0a16.88,16.88,0,0,0-3.62,2.6l-.09.08-.12,0-3.95-1.37.25-.09L55.65,83l0-.27,3,3,.1.09,0,.13a17,17,0,0,0-.73,4.39v.14l-.13.06L54,92.27l.13-.26c.49,2.13,1,4.42,1.56,6.74l-.23-.18,4.18,0h.14l.07.13a16.58,16.58,0,0,0,2.58,3.62h0c0,.11,0-.23.05.24h0v0l0,.06,0,.13-.09.25-.17.49-.35,1-.69,2-.09-.28,5.86,3.67-.29,0,3-3,.1-.1.13,0a16.61,16.61,0,0,0,4.39.74h.14l.06.12c.61,1.27,1.22,2.53,1.81,3.77l-.25-.12,6.75-1.55-.17.21c0-1.42,0-2.81,0-4.18v-.13l.11-.06a16.72,16.72,0,0,0,3.64-2.58l.09-.08.11,0,4,1.38-.23.09c1.29-2.07,2.52-4,3.68-5.86l0,.22-3-3-.08-.08,0-.09a16.58,16.58,0,0,0,.75-4.41v-.09l.08,0,3.78-1.81-.08.16c-.59-2.61-1.09-4.84-1.52-6.75l.1.08H89.75l0,0A17.73,17.73,0,0,0,87.89,80c-.23-.27-.4-.49-.53-.65a2.46,2.46,0,0,1-.18-.21s.08.06.21.19.32.34.56.62a16.84,16.84,0,0,1,1.92,2.83l-.07,0,4.18,0h.09l0,.08c.44,1.91,1,4.13,1.58,6.74l0,.11-.1,0-3.76,1.84.08-.14a17.22,17.22,0,0,1-.73,4.5l0-.17,3,2.93.1.11-.07.12-3.66,5.87-.08.14-.15-.06-4-1.37.2,0a17,17,0,0,1-3.71,2.65l.11-.18c0,1.37,0,2.76,0,4.18v.17l-.17,0L76,111.84l-.17,0-.08-.17c-.6-1.23-1.2-2.49-1.82-3.76l.2.13a17.11,17.11,0,0,1-4.51-.76l.23,0-2.94,3-.14.13-.15-.1-5.87-3.67-.16-.1.06-.18.69-2,.34-1,.18-.5.08-.25,0-.12,0-.06v0h0c.1.47,0,.13.05.23h0a16.59,16.59,0,0,1-2.65-3.72l.2.12-4.18,0h-.19l0-.18c-.53-2.32-1.06-4.61-1.55-6.75l0-.18.16-.08L57.58,90l-.12.2a17.44,17.44,0,0,1,.75-4.51l.06.22-3-3-.13-.12.09-.15L59,76.87l.09-.14.16,0,3.94,1.39-.2,0a17.28,17.28,0,0,1,3.72-2.64l-.1.17c0-1.46,0-2.89,0-4.18v-.15l.14,0,6.75-1.54.13,0,.06.12c.63,1.33,1.24,2.6,1.81,3.77l-.14-.08a17.13,17.13,0,0,1,4.49.77l-.14,0,3-3,.07-.07.08,0,5.84,3.7.05,0,0,0-1.06,2.92c-.12.31-.21.56-.28.75S87.19,79.16,87.18,79.17Z" style="fill:#e0e0e0"></path></g><g id="freepik--Screen--inject-18"><path d="M326.56,41.68l-29.4-.14A7.31,7.31,0,0,0,290,49l0,5.33a7.3,7.3,0,0,1-7.17,7.43l-57.31-.26a7.31,7.31,0,0,1-7.11-7.5l0-5.33a7.31,7.31,0,0,0-7.11-7.5l-10.34,0L175.22,41A23.13,23.13,0,0,0,152,64l-1.57,371.08a23.14,23.14,0,0,0,23,23.24l151.34.69A23.13,23.13,0,0,0,348,436l1.57-371.08A23.12,23.12,0,0,0,326.56,41.68Z" style="fill:#fff"></path><path d="M326.56,41.68s.27,0,.79,0a16.54,16.54,0,0,1,2.35.19,21.7,21.7,0,0,1,8.66,3,22.12,22.12,0,0,1,5.25,4.29A23.16,23.16,0,0,1,348,56.16a24.06,24.06,0,0,1,1.69,9.39c0,3.41,0,7,0,10.9-.11,30.83-.27,75.43-.47,130.53s-.47,120.73-.76,193.6q-.06,13.67-.11,27.65c0,2.34,0,4.67,0,7a25.07,25.07,0,0,1-.91,7,23.43,23.43,0,0,1-3,6.49,25.06,25.06,0,0,1-4.82,5.31,23.36,23.36,0,0,1-13.35,5.12c-1.22.08-2.42.06-3.63.05H319l-7.28,0-29.46-.14-60.47-.27-30.93-.14-15.62-.08a24.31,24.31,0,0,1-15-4.21,23.59,23.59,0,0,1-9.09-12.66,25,25,0,0,1-.93-7.82l0-7.8q.06-15.57.13-30.93.13-30.72.26-60.49c.17-39.65.34-77.9.5-114.34s.32-71.06.46-103.46q.11-24.3.21-46.89,0-2.82,0-5.61c0-.93.09-1.87.14-2.8s.24-1.86.48-2.75A23.28,23.28,0,0,1,165.89,42.7a24,24,0,0,1,10.27-1.9l20.17.1L206,41l4.75,0a7.36,7.36,0,0,1,4.53,1.29,7.61,7.61,0,0,1,2.8,3.7,12.44,12.44,0,0,1,.44,4.56c0,.75,0,1.5,0,2.25a16.12,16.12,0,0,0,.07,2.21,7.36,7.36,0,0,0,1.72,3.9,6.78,6.78,0,0,0,3.55,2.22,7.66,7.66,0,0,0,2.09.22h2.13l8.35,0,30.51.17,13.45.07c1.06,0,2.14.06,3.15,0a6.79,6.79,0,0,0,2.85-1,7.34,7.34,0,0,0,3.27-4.66,12.71,12.71,0,0,0,.19-2.82c0-.93,0-1.86,0-2.76a15.18,15.18,0,0,1,.13-2.7,7.83,7.83,0,0,1,.88-2.47,7.34,7.34,0,0,1,3.69-3.24c1.52-.65,3.13-.44,4.59-.47l15,.1,9.23.06c2.08,0,3.14,0,3.14,0h-3.14l-9.23,0-15,0a11.28,11.28,0,0,0-4.52.47,7.06,7.06,0,0,0-3.6,3.17,7.55,7.55,0,0,0-.86,2.41,15.68,15.68,0,0,0-.12,2.67c0,.91,0,1.83,0,2.76a13.23,13.23,0,0,1-.19,2.86,7.55,7.55,0,0,1-3.36,4.8,7,7,0,0,1-2.93,1c-1.07.09-2.11,0-3.18,0L267,61.78l-30.51-.12-8.35,0H226a8,8,0,0,1-2.17-.22,7.14,7.14,0,0,1-3.71-2.31,7.73,7.73,0,0,1-1.8-4.07,18.86,18.86,0,0,1-.07-2.25c0-.75,0-1.5,0-2.25a12.06,12.06,0,0,0-.43-4.45,7.35,7.35,0,0,0-2.68-3.54,7,7,0,0,0-4.34-1.22l-4.75,0-9.71,0-20.16-.09a23.05,23.05,0,0,0-18.57,8.15,23.19,23.19,0,0,0-4.8,9.61c-.24.88-.31,1.8-.48,2.7s-.12,1.83-.13,2.76q0,2.79,0,5.61-.08,22.56-.18,46.89c-.13,32.4-.27,67-.41,103.47s-.31,74.68-.47,114.34q-.12,29.73-.25,60.48-.06,15.36-.13,30.94,0,3.88,0,7.8a24.72,24.72,0,0,0,.91,7.66A23.14,23.14,0,0,0,160.48,454a23.86,23.86,0,0,0,14.72,4.11l15.62.08,30.92.14,60.47.28,29.47.14,7.28,0h3.62c1.21,0,2.42,0,3.6-.05a22.81,22.81,0,0,0,13.06-5,24.35,24.35,0,0,0,4.73-5.2,22.7,22.7,0,0,0,2.91-6.35,24.36,24.36,0,0,0,.9-6.9l0-7q.06-14,.12-27.65c.33-72.87.63-138.49.87-193.6s.49-99.7.64-130.53c0-3.85,0-7.49.06-10.9a23.84,23.84,0,0,0-1.66-9.34,23.21,23.21,0,0,0-4.32-6.89A23.21,23.21,0,0,0,329.69,42a19.38,19.38,0,0,0-2.34-.22Z" style="fill:#263238"></path><path d="M299.39,158.51l-2.27-2.69,6.76-3.63-31.41-10.63L283.1,172l3.87-5.07s20.32,35.76,0,57.5c-20.18,21.59-44,16.91-44,16.91l4.59,15S285,259,305.09,225.16,299.39,158.51,299.39,158.51Z" style="fill:#42B7FF"></path><path d="M205.21,233.55l2.27,2.69-6.77,3.63,31.41,10.63-10.63-30.44-3.86,5.07s-20.33-35.76,0-57.5c20.18-21.59,44-16.91,44-16.91l-4.59-15s-37.45-2.66-57.5,31.16S205.21,233.55,205.21,233.55Z" style="fill:#42B7FF"></path><path d="M299.39,158.51l-2.27-2.69,6.76-3.63-31.41-10.63L283.1,172l3.87-5.07s20.32,35.76,0,57.5c-20.18,21.59-44,16.91-44,16.91l4.59,15S285,259,305.09,225.16,299.39,158.51,299.39,158.51Z" style="fill:#42B7FF"></path><path d="M205.21,233.55l2.27,2.69-6.77,3.63,31.41,10.63-10.63-30.44-3.86,5.07s-20.33-35.76,0-57.5c20.18-21.59,44-16.91,44-16.91l-4.59-15s-37.45-2.66-57.5,31.16S205.21,233.55,205.21,233.55Z" style="fill:#42B7FF"></path><g style="opacity:0.8"><path d="M299.39,158.51l-2.27-2.69,6.76-3.63-31.41-10.63L283.1,172l3.87-5.07s20.32,35.76,0,57.5c-20.18,21.59-44,16.91-44,16.91l4.59,15S285,259,305.09,225.16,299.39,158.51,299.39,158.51Z" style="fill:#fff"></path></g><g style="opacity:0.8"><path d="M205.21,233.55l2.27,2.69-6.77,3.63,31.41,10.63-10.63-30.44-3.86,5.07s-20.33-35.76,0-57.5c20.18-21.59,44-16.91,44-16.91l-4.59-15s-37.45-2.66-57.5,31.16S205.21,233.55,205.21,233.55Z" style="fill:#fff"></path></g><path d="M270.21,178.27a24.42,24.42,0,0,1,3.77,5.31l6,0,2.24,9.73-5.43,2.63a24.52,24.52,0,0,1-1.08,6.42l4.29,4.25-5.3,8.46-5.7-2a24.08,24.08,0,0,1-5.3,3.78l0,6L254,225.11l-2.62-5.44A24.51,24.51,0,0,1,245,218.6l-4.25,4.28-8.47-5.29,2-5.7a24.27,24.27,0,0,1-3.77-5.3l-6,0-2.24-9.73,5.43-2.62a24.46,24.46,0,0,1,1.08-6.42l-4.28-4.25,5.29-8.47,5.7,2a24.41,24.41,0,0,1,5.3-3.78l0-6,9.73-2.25,2.62,5.44a24.12,24.12,0,0,1,6.42,1.08l4.25-4.29,8.47,5.3-2,5.69Zm-11.91,8A10.71,10.71,0,1,0,261.7,201,10.71,10.71,0,0,0,258.3,186.24Z" style="fill:#42B7FF;fill-rule:evenodd"></path><g style="opacity:0.6000000000000001"><path d="M258.3,186.24A10.71,10.71,0,1,0,261.7,201,10.71,10.71,0,0,0,258.3,186.24Z" style="fill:#fff;fill-rule:evenodd"></path></g><path d="M219.69,294.79v-6.41h1.18v6.36c0,2.66,1.25,3.87,3.42,3.87s3.44-1.21,3.44-3.87v-6.36h1.15v6.41c0,3.22-1.72,4.88-4.59,4.88S219.69,298,219.69,294.79Z" style="fill:#263238"></path><path d="M241.2,292.22c0,2.38-1.72,3.82-4.57,3.82h-3v3.53h-1.19V288.38h4.19C239.48,288.38,241.2,289.82,241.2,292.22Zm-1.18,0c0-1.79-1.18-2.82-3.42-2.82h-3V295h3C238.84,295,240,294,240,292.22Z" style="fill:#263238"></path><path d="M243.76,288.38h4.55c3.58,0,6,2.3,6,5.6s-2.42,5.59-6,5.59h-4.55Zm4.49,10.17c3,0,4.89-1.89,4.89-4.57s-1.92-4.58-4.89-4.58h-3.31v9.15Z" style="fill:#263238"></path><path d="M263.81,296.58h-6.23l-1.35,3H255l5.12-11.19h1.17l5.11,11.19h-1.24Zm-.43-1-2.68-6-2.69,6Z" style="fill:#263238"></path><path d="M269.87,289.4h-3.94v-1H275v1h-3.93v10.17h-1.18Z" style="fill:#263238"></path><path d="M284.78,298.55v1h-7.91V288.38h7.67v1h-6.49v4h5.79v1h-5.79v4.16Z" style="fill:#263238"></path><path d="M335.33,77.68c0,.1-4.05.22-9.05.26s-9,0-9-.11,4-.23,9-.27S335.33,77.57,335.33,77.68Z" style="fill:#263238"></path><path d="M335.37,82.31c0,.11-4.05.23-9.05.27s-9.05,0-9.05-.12,4.05-.22,9.05-.26S335.37,82.21,335.37,82.31Z" style="fill:#263238"></path><path d="M335.41,86.94c0,.11-4.05.23-9.05.27s-9.06,0-9.06-.12,4.05-.22,9.06-.26S335.41,86.84,335.41,86.94Z" style="fill:#263238"></path><path d="M170.65,92.23l.37,0,1,0,3.87-.09-.11.11c0-.86,0-1.79,0-2.8,0-.53,0-1,0-1.62a1.49,1.49,0,0,1,1.3-1.19c.62,0,1.17,0,1.85,0a1.51,1.51,0,0,1,1.26,1.49c0,1.31,0,2.68.05,4.09l-.18-.17,4.88,0-.19.18c0-2,0-4,0-6.07,0-.52,0-1,0-1.55a1.55,1.55,0,0,0-.68-1.15l-2.13-2.1-2.06-2-1-1c-.34-.33-.61-.67-1-.75a1.34,1.34,0,0,0-1.12.21c-.3.25-.61.61-.91.9L174,80.34c-1.1,1.14-2.25,2.19-3.08,3.18a3.51,3.51,0,0,0-.25,1.82v1.72c0,1,0,2,0,2.76s0,1.29,0,1.77,0,.63,0,.64a4.72,4.72,0,0,1,0-.58c0-.48,0-1.05,0-1.75s0-1.73-.07-2.79c0-.55,0-1.13,0-1.75,0-.31,0-.63,0-1a2,2,0,0,1,.26-1c.91-1.11,2-2.08,3.09-3.26l1.74-1.78c.31-.31.57-.61.94-.93a1.65,1.65,0,0,1,1.41-.28,2.63,2.63,0,0,1,1.18.84l1,1,2.06,2,2.14,2.1a4,4,0,0,1,.54.59,1.59,1.59,0,0,1,.26.82c0,.51,0,1,0,1.55,0,2.09,0,4.12,0,6.08v.19H185l-4.88,0h-.17v-.17c0-1.42,0-2.79,0-4.09a1.18,1.18,0,0,0-1-1.19c-.56,0-1.23,0-1.77,0a1.18,1.18,0,0,0-1.05.94c0,.49,0,1.07,0,1.56V92.3h-.11l-3.93,0-1,0A2,2,0,0,1,170.65,92.23Z" style="fill:#263238"></path><path d="M290.5,88.28c0,.14-15.24.26-34,.26s-34-.12-34-.26,15.24-.26,34-.26S290.5,88.14,290.5,88.28Z" style="fill:#263238"></path><path d="M288.73,404.33H217.28a16.53,16.53,0,0,1-16.53-16.52h0a16.53,16.53,0,0,1,16.53-16.53h71.45a16.53,16.53,0,0,1,16.53,16.53h0A16.53,16.53,0,0,1,288.73,404.33Z" style="fill:#42B7FF"></path><path d="M239.37,390.22l.6-1.32a4.42,4.42,0,0,0,2.5.79c1,0,1.47-.34,1.47-.81,0-1.42-4.42-.45-4.42-3.27,0-1.29,1-2.36,3.2-2.36a5.06,5.06,0,0,1,2.64.67l-.54,1.33a4.33,4.33,0,0,0-2.11-.59c-1,0-1.44.39-1.44.87,0,1.4,4.41.43,4.41,3.22,0,1.27-1.05,2.35-3.22,2.35A5.42,5.42,0,0,1,239.37,390.22Z" style="fill:#fff"></path><path d="M250.53,390.69a2.43,2.43,0,0,1-1.38.37A1.92,1.92,0,0,1,247,389v-2.4h-.9v-1.31h.9v-1.42h1.69v1.42h1.46v1.31h-1.46v2.37a.68.68,0,0,0,.73.77,1.12,1.12,0,0,0,.68-.21Z" style="fill:#fff"></path><path d="M256.65,387.64V391h-1.59v-.72a1.91,1.91,0,0,1-1.78.81c-1.37,0-2.18-.76-2.18-1.77s.73-1.75,2.51-1.75H255c0-.72-.43-1.15-1.34-1.15a2.77,2.77,0,0,0-1.68.55l-.61-1.19a4.52,4.52,0,0,1,2.52-.7C255.61,385.05,256.65,385.87,256.65,387.64Zm-1.7,1.49v-.6h-1.16c-.79,0-1,.29-1,.68s.36.71.95.71A1.24,1.24,0,0,0,255,389.13Z" style="fill:#fff"></path><path d="M261.79,385.05v1.56l-.37,0a1.44,1.44,0,0,0-1.56,1.63V391h-1.69v-5.83h1.62v.77A2.33,2.33,0,0,1,261.79,385.05Z" style="fill:#fff"></path><path d="M266.77,390.69a2.43,2.43,0,0,1-1.38.37,1.93,1.93,0,0,1-2.18-2.09v-2.4h-.9v-1.31h.9v-1.42h1.7v1.42h1.45v1.31h-1.45v2.37a.68.68,0,0,0,.72.77,1.17,1.17,0,0,0,.69-.21Z" style="fill:#fff"></path><path d="M320.91,325.93c0,.14-30.72.26-68.61.26s-68.62-.12-68.62-.26,30.72-.26,68.62-.26S320.91,325.78,320.91,325.93Z" style="fill:#263238"></path><path d="M293.57,334.34c0,.14-18.48.26-41.27.26s-41.28-.12-41.28-.26,18.48-.26,41.28-.26S293.57,334.19,293.57,334.34Z" style="fill:#263238"></path></g></svg>